<svg width="164" height="65" viewBox="0 0 164 65" fill="none" xmlns="http://www.w3.org/2000/svg">
<path fill-rule="evenodd" clip-rule="evenodd" d="M21.0076 2.88234C10.3357 16.6839 0.103437 33.799 0.00083302 46.592C-0.0391283 51.4054 1.35628 55.6075 4.70331 58.7902C9.52028 63.3741 14.8276 64.9905 20.109 65C27.8269 65.0119 35.4908 61.5829 41.4915 58.9389C51.5974 54.4882 163.309 1.06497 163.309 1.06497C164.387 0.470278 164.185 -0.2707 162.836 0.0991965C162.292 0.249058 41.2204 36.3812 41.2204 36.3812C38.9271 37.0954 36.5574 37.469 34.1743 37.492C24.8698 37.5527 16.5902 31.8651 16.6572 19.8797C16.6831 15.19 17.9867 9.53452 21.0076 2.88234Z" fill="#704C4C"/>
</svg>
