<svg width="164" height="65" viewBox="0 0 164 65" fill="none" xmlns="http://www.w3.org/2000/svg">
<path fill-rule="evenodd" clip-rule="evenodd" d="M21.0076 3.44341C10.3357 17.0826 0.103437 33.9965 0.00083302 46.639C-0.0391283 51.3958 1.35628 55.5485 4.70331 58.6938C9.52028 63.2237 14.8276 64.8211 20.109 64.8305C27.8269 64.8423 35.4908 61.4536 41.4915 58.8407C51.5974 54.4424 163.309 1.64741 163.309 1.64741C164.387 1.05972 164.185 0.327454 162.836 0.693001C162.292 0.8411 41.2204 36.5483 41.2204 36.5483C38.9271 37.2541 36.5574 37.6233 34.1743 37.6461C24.8698 37.706 16.5902 32.0853 16.6572 20.2409C16.6831 15.6063 17.9867 10.0174 21.0076 3.44341Z" fill="#704C4C"/>
</svg>
