<svg width="43" height="42" viewBox="0 0 43 42" fill="none" xmlns="http://www.w3.org/2000/svg">
<path d="M20.6468 42C9.26256 42 0 32.5795 0 21C0 9.42052 9.26261 0 20.6468 0C25.7412 0 30.6352 1.90379 34.4269 5.3605C34.8986 5.7906 34.9377 6.5283 34.5143 7.00798C34.092 7.4888 33.3673 7.5275 32.8946 7.09798C29.5251 4.02525 25.1755 2.33332 20.6468 2.33332C10.5273 2.33332 2.29407 10.7073 2.29407 21C2.29407 31.2927 10.5272 39.6667 20.6468 39.6667C30.5557 39.6667 38.6118 31.7837 38.986 21.7207C39.0107 21.0769 39.5349 20.5637 40.1756 20.5984C40.8085 20.6229 41.3025 21.1647 41.2779 21.8084C40.8567 33.1309 31.7946 42 20.6468 42Z" fill="#22C67F"/>
<path d="M43 11.8003L39.7556 8.50049L22.2947 26.2601L10.1268 13.8842L6.88245 17.184L22.293 32.8582L22.2947 32.8566L22.2963 32.8582L43 11.8003Z" fill="#74E8AE"/>
</svg>
