<svg width="122" height="119" viewBox="0 0 122 119" fill="none" xmlns="http://www.w3.org/2000/svg">
<path d="M51.7279 79.9811C51.2197 79.9644 50.7201 79.8467 50.2604 79.6351C49.8004 79.4235 49.3897 79.1227 49.0532 78.7506C48.3444 78.0586 47.9463 77.1205 47.9463 76.142C47.9463 75.164 48.3444 74.2254 49.0532 73.5334L64.193 58.7676L49.0532 44.002C48.7538 43.2932 48.6881 42.5111 48.8653 41.7642C49.0424 41.0173 49.4535 40.3427 50.0416 39.8341C50.6297 39.3255 51.3655 39.008 52.1473 38.9258C52.9285 38.8436 53.7168 39.0008 54.4026 39.3754L72.0658 56.602C72.7748 57.2945 73.173 58.2326 73.173 59.2106C73.173 60.1891 72.7748 61.1272 72.0658 61.8192L54.4026 78.7506C54.066 79.1227 53.6552 79.4235 53.1954 79.6351C52.7357 79.8467 52.2361 79.9644 51.7279 79.9811Z" fill="#A0A0A0"/>
</svg>
