<svg width="30" height="29" viewBox="0 0 48 47" fill="none" xmlns="http://www.w3.org/2000/svg">
<path fill-rule="evenodd" clip-rule="evenodd" d="M46.6111 5.63109C47.1879 5.04783 47.5071 4.26665 47.4999 3.4558C47.4927 2.64494 47.1596 1.8693 46.5725 1.29592C45.9854 0.722539 45.1911 0.3973 44.3608 0.390254C43.5306 0.383208 42.7306 0.694919 42.1334 1.25825L23.7889 19.1733L5.44441 1.25825C4.84717 0.694919 4.04726 0.383208 3.21697 0.390254C2.38669 0.3973 1.59245 0.722539 1.00532 1.29592C0.418195 1.8693 0.0851591 2.64494 0.0779442 3.4558C0.0707292 4.26665 0.389913 5.04783 0.966747 5.63109L19.3112 23.5461L0.966747 41.4612C0.664298 41.7464 0.423054 42.0877 0.257092 42.465C0.0911299 42.8423 0.00377332 43.2481 0.000119564 43.6587C-0.00353419 44.0693 0.0765872 44.4766 0.23581 44.8566C0.395033 45.2367 0.630168 45.582 0.927495 45.8723C1.22482 46.1627 1.57839 46.3923 1.96756 46.5478C2.35673 46.7033 2.77372 46.7816 3.19418 46.778C3.61465 46.7744 4.03018 46.6891 4.41653 46.527C4.80287 46.365 5.1523 46.1294 5.44441 45.834L23.7889 27.919L42.1334 45.834C42.7306 46.3973 43.5306 46.709 44.3608 46.702C45.1911 46.6949 45.9854 46.3697 46.5725 45.7963C47.1596 45.2229 47.4927 44.4473 47.4999 43.6364C47.5071 42.8256 47.1879 42.0444 46.6111 41.4612L28.2666 23.5461L46.6111 5.63109Z" fill="#827E7E"/>
</svg>
